<svg width="120" height="22" viewBox="0 0 120 22" fill="none" xmlns="http://www.w3.org/2000/svg">
<rect x="0.5" y="0.5" width="21" height="21" rx="5.5" fill="white"/>
<rect x="0.5" y="0.5" width="21" height="21" rx="5.5" stroke="#F4F4F4"/>
<path d="M6.31445 10.9999L9.43445 14.1199L15.6855 7.87988" stroke="white" stroke-width="1.5" stroke-linecap="round" stroke-linejoin="round"/>
<path d="M42.0089 6.04754L43.0355 8.10087C43.1755 8.38671 43.5489 8.66087 43.8639 8.71337L45.7247 9.02254C46.9147 9.22087 47.1947 10.0842 46.3372 10.9359L44.8905 12.3825C44.6455 12.6275 44.5114 13.1 44.5872 13.4384L45.0014 15.2292C45.328 16.6467 44.5755 17.195 43.3214 16.4542L41.5772 15.4217C41.2622 15.235 40.743 15.235 40.4222 15.4217L38.678 16.4542C37.4297 17.195 36.6714 16.6409 36.998 15.2292L37.4122 13.4384C37.488 13.1 37.3539 12.6275 37.1089 12.3825L35.6622 10.9359C34.8105 10.0842 35.0847 9.22087 36.2747 9.02254L38.1355 8.71337C38.4447 8.66087 38.818 8.38671 38.958 8.10087L39.9847 6.04754C40.5447 4.93337 41.4547 4.93337 42.0089 6.04754Z" fill="#F2BC1B" stroke="#F2BC1B" stroke-width="1.5" stroke-linecap="round" stroke-linejoin="round"/>
<path d="M60.0089 6.04754L61.0355 8.10087C61.1755 8.38671 61.5489 8.66087 61.8639 8.71337L63.7247 9.02254C64.9147 9.22087 65.1947 10.0842 64.3372 10.9359L62.8905 12.3825C62.6455 12.6275 62.5114 13.1 62.5872 13.4384L63.0014 15.2292C63.328 16.6467 62.5755 17.195 61.3214 16.4542L59.5772 15.4217C59.2622 15.235 58.743 15.235 58.4222 15.4217L56.678 16.4542C55.4297 17.195 54.6714 16.6409 54.998 15.2292L55.4122 13.4384C55.488 13.1 55.3539 12.6275 55.1089 12.3825L53.6622 10.9359C52.8105 10.0842 53.0847 9.22087 54.2747 9.02254L56.1355 8.71337C56.4447 8.66087 56.818 8.38671 56.958 8.10087L57.9847 6.04754C58.5447 4.93337 59.4547 4.93337 60.0089 6.04754Z" fill="white" stroke="#C8C9CB" stroke-linecap="round" stroke-linejoin="round"/>
<path d="M78.0089 6.04754L79.0355 8.10087C79.1755 8.38671 79.5489 8.66087 79.8639 8.71337L81.7247 9.02254C82.9147 9.22087 83.1947 10.0842 82.3372 10.9359L80.8905 12.3825C80.6455 12.6275 80.5114 13.1 80.5872 13.4384L81.0014 15.2292C81.328 16.6467 80.5755 17.195 79.3214 16.4542L77.5772 15.4217C77.2622 15.235 76.743 15.235 76.4222 15.4217L74.678 16.4542C73.4297 17.195 72.6714 16.6409 72.998 15.2292L73.4122 13.4384C73.488 13.1 73.3539 12.6275 73.1089 12.3825L71.6622 10.9359C70.8105 10.0842 71.0847 9.22087 72.2747 9.02254L74.1355 8.71337C74.4447 8.66087 74.818 8.38671 74.958 8.10087L75.9847 6.04754C76.5447 4.93337 77.4547 4.93337 78.0089 6.04754Z" fill="white" stroke="#C8C9CB" stroke-linecap="round" stroke-linejoin="round"/>
<path d="M96.0089 6.04754L97.0355 8.10087C97.1755 8.38671 97.5489 8.66087 97.8639 8.71337L99.7247 9.02254C100.915 9.22087 101.195 10.0842 100.337 10.9359L98.8905 12.3825C98.6455 12.6275 98.5114 13.1 98.5872 13.4384L99.0014 15.2292C99.328 16.6467 98.5755 17.195 97.3214 16.4542L95.5772 15.4217C95.2622 15.235 94.743 15.235 94.4222 15.4217L92.678 16.4542C91.4297 17.195 90.6714 16.6409 90.998 15.2292L91.4122 13.4384C91.488 13.1 91.3539 12.6275 91.1089 12.3825L89.6622 10.9359C88.8105 10.0842 89.0847 9.22087 90.2747 9.02254L92.1355 8.71337C92.4447 8.66087 92.818 8.38671 92.958 8.10087L93.9847 6.04754C94.5447 4.93337 95.4547 4.93337 96.0089 6.04754Z" fill="white" stroke="#C8C9CB" stroke-linecap="round" stroke-linejoin="round"/>
<path d="M114.009 6.04754L115.036 8.10087C115.176 8.38671 115.549 8.66087 115.864 8.71337L117.725 9.02254C118.915 9.22087 119.195 10.0842 118.337 10.9359L116.891 12.3825C116.646 12.6275 116.511 13.1 116.587 13.4384L117.001 15.2292C117.328 16.6467 116.576 17.195 115.321 16.4542L113.577 15.4217C113.262 15.235 112.743 15.235 112.422 15.4217L110.678 16.4542C109.43 17.195 108.671 16.6409 108.998 15.2292L109.412 13.4384C109.488 13.1 109.354 12.6275 109.109 12.3825L107.662 10.9359C106.811 10.0842 107.085 9.22087 108.275 9.02254L110.136 8.71337C110.445 8.66087 110.818 8.38671 110.958 8.10087L111.985 6.04754C112.545 4.93337 113.455 4.93337 114.009 6.04754Z" fill="white" stroke="#C8C9CB" stroke-linecap="round" stroke-linejoin="round"/>
</svg>
